<?xml version="1.0" standalone="no"?>
<!DOCTYPE svg PUBLIC "-//W3C//DTD SVG 20010904//EN"
 "http://www.w3.org/TR/2001/REC-SVG-20010904/DTD/svg10.dtd">
<svg version="1.0" xmlns="http://www.w3.org/2000/svg"
 width="2300.000000pt" height="2300.000000pt" viewBox="0 0 2300.000000 2300.000000"
 preserveAspectRatio="xMidYMid meet">

<g transform="translate(0.000000,2300.000000) scale(0.100000,-0.100000)"
fill="#000000" stroke="none">
<path d="M0 11505 l0 -11495 11495 0 11495 0 0 11495 0 11495 -11495 0 -11495
0 0 -11495z m16320 605 l0 -190 -195 0 -195 0 0 190 0 190 195 0 195 0 0 -190z
m1935 -1665 c341 -153 626 -282 633 -288 9 -7 12 -40 10 -120 l-3 -110 -644
-289 c-355 -158 -646 -288 -648 -288 -2 0 -2 70 -1 156 l3 156 400 178 c361
160 400 180 400 201 0 21 -39 41 -402 202 l-403 179 0 155 c0 143 1 155 18
150 9 -2 296 -129 637 -282z"/>
</g>
</svg>
